<mxfile host="Electron" modified="2024-07-31T16:42:20.641Z" agent="Mozilla/5.0 (X11; Linux x86_64) AppleWebKit/537.36 (KHTML, like Gecko) draw.io/24.6.4 Chrome/124.0.6367.207 Electron/30.0.6 Safari/537.36" etag="rZzKdtwI4r_u13gZMX3E" version="24.6.4" type="device">
  <diagram name="PÃ¡gina-1" id="5LI9Xt5YTezpUDo39Ra8">
    <mxGraphModel dx="2667" dy="2160" grid="0" gridSize="10" guides="1" tooltips="1" connect="1" arrows="1" fold="1" page="0" pageScale="1" pageWidth="827" pageHeight="1169" math="0" shadow="0">
      <root>
        <mxCell id="0" />
        <mxCell id="1" parent="0" />
        <mxCell id="dBZwFaHhxmJY7qI1aXTD-31" style="edgeStyle=none;curved=1;rounded=0;orthogonalLoop=1;jettySize=auto;html=1;fontSize=12;startSize=8;endSize=8;startArrow=classic;startFill=1;endArrow=none;endFill=0;" parent="1" source="dBZwFaHhxmJY7qI1aXTD-1" target="dBZwFaHhxmJY7qI1aXTD-24" edge="1">
          <mxGeometry relative="1" as="geometry" />
        </mxCell>
        <mxCell id="dBZwFaHhxmJY7qI1aXTD-32" style="edgeStyle=none;curved=1;rounded=0;orthogonalLoop=1;jettySize=auto;html=1;fontSize=12;startSize=8;endSize=8;startArrow=classic;startFill=1;endArrow=none;endFill=0;" parent="1" source="dBZwFaHhxmJY7qI1aXTD-1" target="dBZwFaHhxmJY7qI1aXTD-13" edge="1">
          <mxGeometry relative="1" as="geometry" />
        </mxCell>
        <mxCell id="dBZwFaHhxmJY7qI1aXTD-33" style="edgeStyle=none;curved=0;rounded=0;orthogonalLoop=1;jettySize=auto;html=1;fontSize=12;startSize=8;endSize=8;startArrow=classic;startFill=1;endArrow=none;endFill=0;" parent="1" source="dBZwFaHhxmJY7qI1aXTD-1" target="dBZwFaHhxmJY7qI1aXTD-17" edge="1">
          <mxGeometry relative="1" as="geometry">
            <Array as="points">
              <mxPoint x="-78" y="58" />
              <mxPoint x="-78" y="-10" />
            </Array>
          </mxGeometry>
        </mxCell>
        <mxCell id="dBZwFaHhxmJY7qI1aXTD-1" value="usuario" style="swimlane;fontStyle=0;childLayout=stackLayout;horizontal=1;startSize=30;horizontalStack=0;resizeParent=1;resizeParentMax=0;resizeLast=0;collapsible=1;marginBottom=0;whiteSpace=wrap;html=1;" parent="1" vertex="1">
          <mxGeometry x="-460" y="-17" width="140" height="150" as="geometry" />
        </mxCell>
        <mxCell id="dBZwFaHhxmJY7qI1aXTD-2" value="nome" style="text;strokeColor=none;fillColor=none;align=left;verticalAlign=middle;spacingLeft=4;spacingRight=4;overflow=hidden;points=[[0,0.5],[1,0.5]];portConstraint=eastwest;rotatable=0;whiteSpace=wrap;html=1;" parent="dBZwFaHhxmJY7qI1aXTD-1" vertex="1">
          <mxGeometry y="30" width="140" height="30" as="geometry" />
        </mxCell>
        <mxCell id="dBZwFaHhxmJY7qI1aXTD-3" value="email" style="text;strokeColor=none;fillColor=none;align=left;verticalAlign=middle;spacingLeft=4;spacingRight=4;overflow=hidden;points=[[0,0.5],[1,0.5]];portConstraint=eastwest;rotatable=0;whiteSpace=wrap;html=1;" parent="dBZwFaHhxmJY7qI1aXTD-1" vertex="1">
          <mxGeometry y="60" width="140" height="30" as="geometry" />
        </mxCell>
        <mxCell id="dBZwFaHhxmJY7qI1aXTD-60" value="telefone" style="text;strokeColor=none;fillColor=none;align=left;verticalAlign=middle;spacingLeft=4;spacingRight=4;overflow=hidden;points=[[0,0.5],[1,0.5]];portConstraint=eastwest;rotatable=0;whiteSpace=wrap;html=1;" parent="dBZwFaHhxmJY7qI1aXTD-1" vertex="1">
          <mxGeometry y="90" width="140" height="30" as="geometry" />
        </mxCell>
        <mxCell id="dBZwFaHhxmJY7qI1aXTD-4" value="senha" style="text;strokeColor=none;fillColor=none;align=left;verticalAlign=middle;spacingLeft=4;spacingRight=4;overflow=hidden;points=[[0,0.5],[1,0.5]];portConstraint=eastwest;rotatable=0;whiteSpace=wrap;html=1;" parent="dBZwFaHhxmJY7qI1aXTD-1" vertex="1">
          <mxGeometry y="120" width="140" height="30" as="geometry" />
        </mxCell>
        <mxCell id="YnN2ZHL4LHem92UOEk20-11" style="edgeStyle=none;curved=1;rounded=0;orthogonalLoop=1;jettySize=auto;html=1;fontSize=12;startSize=8;endSize=8;" parent="1" source="dBZwFaHhxmJY7qI1aXTD-5" target="dBZwFaHhxmJY7qI1aXTD-73" edge="1">
          <mxGeometry relative="1" as="geometry" />
        </mxCell>
        <mxCell id="dBZwFaHhxmJY7qI1aXTD-5" value="arena" style="swimlane;fontStyle=0;childLayout=stackLayout;horizontal=1;startSize=30;horizontalStack=0;resizeParent=1;resizeParentMax=0;resizeLast=0;collapsible=1;marginBottom=0;whiteSpace=wrap;html=1;" parent="1" vertex="1">
          <mxGeometry x="85" y="-497" width="140" height="90" as="geometry" />
        </mxCell>
        <mxCell id="dBZwFaHhxmJY7qI1aXTD-6" value="nome" style="text;strokeColor=none;fillColor=none;align=left;verticalAlign=middle;spacingLeft=4;spacingRight=4;overflow=hidden;points=[[0,0.5],[1,0.5]];portConstraint=eastwest;rotatable=0;whiteSpace=wrap;html=1;" parent="dBZwFaHhxmJY7qI1aXTD-5" vertex="1">
          <mxGeometry y="30" width="140" height="30" as="geometry" />
        </mxCell>
        <mxCell id="dBZwFaHhxmJY7qI1aXTD-7" value="endereco_id" style="text;strokeColor=none;fillColor=none;align=left;verticalAlign=middle;spacingLeft=4;spacingRight=4;overflow=hidden;points=[[0,0.5],[1,0.5]];portConstraint=eastwest;rotatable=0;whiteSpace=wrap;html=1;" parent="dBZwFaHhxmJY7qI1aXTD-5" vertex="1">
          <mxGeometry y="60" width="140" height="30" as="geometry" />
        </mxCell>
        <mxCell id="dBZwFaHhxmJY7qI1aXTD-71" style="edgeStyle=none;curved=1;rounded=0;orthogonalLoop=1;jettySize=auto;html=1;fontSize=12;startSize=8;endSize=8;" parent="1" source="dBZwFaHhxmJY7qI1aXTD-13" target="dBZwFaHhxmJY7qI1aXTD-67" edge="1">
          <mxGeometry relative="1" as="geometry" />
        </mxCell>
        <mxCell id="dBZwFaHhxmJY7qI1aXTD-13" value="musico" style="swimlane;fontStyle=0;childLayout=stackLayout;horizontal=1;startSize=30;horizontalStack=0;resizeParent=1;resizeParentMax=0;resizeLast=0;collapsible=1;marginBottom=0;whiteSpace=wrap;html=1;" parent="1" vertex="1">
          <mxGeometry x="-460" y="-224" width="140" height="90" as="geometry" />
        </mxCell>
        <mxCell id="dBZwFaHhxmJY7qI1aXTD-14" value="usuario_id" style="text;strokeColor=none;fillColor=none;align=left;verticalAlign=middle;spacingLeft=4;spacingRight=4;overflow=hidden;points=[[0,0.5],[1,0.5]];portConstraint=eastwest;rotatable=0;whiteSpace=wrap;html=1;" parent="dBZwFaHhxmJY7qI1aXTD-13" vertex="1">
          <mxGeometry y="30" width="140" height="30" as="geometry" />
        </mxCell>
        <mxCell id="dBZwFaHhxmJY7qI1aXTD-41" value="vulgo" style="text;strokeColor=none;fillColor=none;align=left;verticalAlign=middle;spacingLeft=4;spacingRight=4;overflow=hidden;points=[[0,0.5],[1,0.5]];portConstraint=eastwest;rotatable=0;whiteSpace=wrap;html=1;" parent="dBZwFaHhxmJY7qI1aXTD-13" vertex="1">
          <mxGeometry y="60" width="140" height="30" as="geometry" />
        </mxCell>
        <mxCell id="YnN2ZHL4LHem92UOEk20-33" style="edgeStyle=none;curved=1;rounded=0;orthogonalLoop=1;jettySize=auto;html=1;fontSize=12;startSize=8;endSize=8;" parent="1" source="dBZwFaHhxmJY7qI1aXTD-17" target="dBZwFaHhxmJY7qI1aXTD-5" edge="1">
          <mxGeometry relative="1" as="geometry" />
        </mxCell>
        <mxCell id="dBZwFaHhxmJY7qI1aXTD-17" value="representante_arena" style="swimlane;fontStyle=0;childLayout=stackLayout;horizontal=1;startSize=30;horizontalStack=0;resizeParent=1;resizeParentMax=0;resizeLast=0;collapsible=1;marginBottom=0;whiteSpace=wrap;html=1;" parent="1" vertex="1">
          <mxGeometry x="-146" y="-497" width="140" height="90" as="geometry" />
        </mxCell>
        <mxCell id="dBZwFaHhxmJY7qI1aXTD-18" value="usuario_id" style="text;strokeColor=none;fillColor=none;align=left;verticalAlign=middle;spacingLeft=4;spacingRight=4;overflow=hidden;points=[[0,0.5],[1,0.5]];portConstraint=eastwest;rotatable=0;whiteSpace=wrap;html=1;" parent="dBZwFaHhxmJY7qI1aXTD-17" vertex="1">
          <mxGeometry y="30" width="140" height="30" as="geometry" />
        </mxCell>
        <mxCell id="dBZwFaHhxmJY7qI1aXTD-19" value="arena_id" style="text;strokeColor=none;fillColor=none;align=left;verticalAlign=middle;spacingLeft=4;spacingRight=4;overflow=hidden;points=[[0,0.5],[1,0.5]];portConstraint=eastwest;rotatable=0;whiteSpace=wrap;html=1;" parent="dBZwFaHhxmJY7qI1aXTD-17" vertex="1">
          <mxGeometry y="60" width="140" height="30" as="geometry" />
        </mxCell>
        <mxCell id="dBZwFaHhxmJY7qI1aXTD-24" value="administrador" style="swimlane;fontStyle=0;childLayout=stackLayout;horizontal=1;startSize=30;horizontalStack=0;resizeParent=1;resizeParentMax=0;resizeLast=0;collapsible=1;marginBottom=0;whiteSpace=wrap;html=1;" parent="1" vertex="1">
          <mxGeometry x="-460" y="277" width="140" height="60" as="geometry" />
        </mxCell>
        <mxCell id="dBZwFaHhxmJY7qI1aXTD-25" value="usuario_id" style="text;strokeColor=none;fillColor=none;align=left;verticalAlign=middle;spacingLeft=4;spacingRight=4;overflow=hidden;points=[[0,0.5],[1,0.5]];portConstraint=eastwest;rotatable=0;whiteSpace=wrap;html=1;" parent="dBZwFaHhxmJY7qI1aXTD-24" vertex="1">
          <mxGeometry y="30" width="140" height="30" as="geometry" />
        </mxCell>
        <mxCell id="YnN2ZHL4LHem92UOEk20-12" style="edgeStyle=none;curved=1;rounded=0;orthogonalLoop=1;jettySize=auto;html=1;fontSize=12;startSize=8;endSize=8;" parent="1" source="dBZwFaHhxmJY7qI1aXTD-42" target="dBZwFaHhxmJY7qI1aXTD-73" edge="1">
          <mxGeometry relative="1" as="geometry" />
        </mxCell>
        <mxCell id="dBZwFaHhxmJY7qI1aXTD-42" value="evento" style="swimlane;fontStyle=0;childLayout=stackLayout;horizontal=1;startSize=30;horizontalStack=0;resizeParent=1;resizeParentMax=0;resizeLast=0;collapsible=1;marginBottom=0;whiteSpace=wrap;html=1;" parent="1" vertex="1">
          <mxGeometry x="486" y="-267" width="140" height="180" as="geometry" />
        </mxCell>
        <mxCell id="dBZwFaHhxmJY7qI1aXTD-45" value="usuario_id" style="text;strokeColor=none;fillColor=none;align=left;verticalAlign=middle;spacingLeft=4;spacingRight=4;overflow=hidden;points=[[0,0.5],[1,0.5]];portConstraint=eastwest;rotatable=0;whiteSpace=wrap;html=1;" parent="dBZwFaHhxmJY7qI1aXTD-42" vertex="1">
          <mxGeometry y="30" width="140" height="30" as="geometry" />
        </mxCell>
        <mxCell id="YnN2ZHL4LHem92UOEk20-1" value="endereco_id" style="text;strokeColor=none;fillColor=none;align=left;verticalAlign=middle;spacingLeft=4;spacingRight=4;overflow=hidden;points=[[0,0.5],[1,0.5]];portConstraint=eastwest;rotatable=0;whiteSpace=wrap;html=1;" parent="dBZwFaHhxmJY7qI1aXTD-42" vertex="1">
          <mxGeometry y="60" width="140" height="30" as="geometry" />
        </mxCell>
        <mxCell id="dBZwFaHhxmJY7qI1aXTD-43" value="nome" style="text;strokeColor=none;fillColor=none;align=left;verticalAlign=middle;spacingLeft=4;spacingRight=4;overflow=hidden;points=[[0,0.5],[1,0.5]];portConstraint=eastwest;rotatable=0;whiteSpace=wrap;html=1;" parent="dBZwFaHhxmJY7qI1aXTD-42" vertex="1">
          <mxGeometry y="90" width="140" height="30" as="geometry" />
        </mxCell>
        <mxCell id="dBZwFaHhxmJY7qI1aXTD-44" value="data" style="text;strokeColor=none;fillColor=none;align=left;verticalAlign=middle;spacingLeft=4;spacingRight=4;overflow=hidden;points=[[0,0.5],[1,0.5]];portConstraint=eastwest;rotatable=0;whiteSpace=wrap;html=1;" parent="dBZwFaHhxmJY7qI1aXTD-42" vertex="1">
          <mxGeometry y="120" width="140" height="30" as="geometry" />
        </mxCell>
        <mxCell id="dBZwFaHhxmJY7qI1aXTD-46" value="hora" style="text;strokeColor=none;fillColor=none;align=left;verticalAlign=middle;spacingLeft=4;spacingRight=4;overflow=hidden;points=[[0,0.5],[1,0.5]];portConstraint=eastwest;rotatable=0;whiteSpace=wrap;html=1;" parent="dBZwFaHhxmJY7qI1aXTD-42" vertex="1">
          <mxGeometry y="150" width="140" height="30" as="geometry" />
        </mxCell>
        <mxCell id="dBZwFaHhxmJY7qI1aXTD-52" style="edgeStyle=none;curved=1;rounded=0;orthogonalLoop=1;jettySize=auto;html=1;fontSize=12;startSize=8;endSize=8;endArrow=none;endFill=0;" parent="1" source="dBZwFaHhxmJY7qI1aXTD-48" target="dBZwFaHhxmJY7qI1aXTD-42" edge="1">
          <mxGeometry relative="1" as="geometry" />
        </mxCell>
        <mxCell id="dBZwFaHhxmJY7qI1aXTD-53" style="edgeStyle=none;curved=1;rounded=0;orthogonalLoop=1;jettySize=auto;html=1;fontSize=12;startSize=8;endSize=8;endArrow=none;endFill=0;" parent="1" source="dBZwFaHhxmJY7qI1aXTD-48" target="dBZwFaHhxmJY7qI1aXTD-13" edge="1">
          <mxGeometry relative="1" as="geometry" />
        </mxCell>
        <mxCell id="dBZwFaHhxmJY7qI1aXTD-48" value="evento_musico_participante" style="swimlane;fontStyle=0;childLayout=stackLayout;horizontal=1;startSize=30;horizontalStack=0;resizeParent=1;resizeParentMax=0;resizeLast=0;collapsible=1;marginBottom=0;whiteSpace=wrap;html=1;" parent="1" vertex="1">
          <mxGeometry x="33" y="-224" width="171" height="90" as="geometry" />
        </mxCell>
        <mxCell id="dBZwFaHhxmJY7qI1aXTD-49" value="evento_id" style="text;strokeColor=none;fillColor=none;align=left;verticalAlign=middle;spacingLeft=4;spacingRight=4;overflow=hidden;points=[[0,0.5],[1,0.5]];portConstraint=eastwest;rotatable=0;whiteSpace=wrap;html=1;" parent="dBZwFaHhxmJY7qI1aXTD-48" vertex="1">
          <mxGeometry y="30" width="171" height="30" as="geometry" />
        </mxCell>
        <mxCell id="dBZwFaHhxmJY7qI1aXTD-50" value="musico_id" style="text;strokeColor=none;fillColor=none;align=left;verticalAlign=middle;spacingLeft=4;spacingRight=4;overflow=hidden;points=[[0,0.5],[1,0.5]];portConstraint=eastwest;rotatable=0;whiteSpace=wrap;html=1;" parent="dBZwFaHhxmJY7qI1aXTD-48" vertex="1">
          <mxGeometry y="60" width="171" height="30" as="geometry" />
        </mxCell>
        <mxCell id="dBZwFaHhxmJY7qI1aXTD-59" style="edgeStyle=none;curved=1;rounded=0;orthogonalLoop=1;jettySize=auto;html=1;fontSize=12;startSize=8;endSize=8;endArrow=none;endFill=0;dashed=1;" parent="1" source="dBZwFaHhxmJY7qI1aXTD-55" target="dBZwFaHhxmJY7qI1aXTD-42" edge="1">
          <mxGeometry relative="1" as="geometry" />
        </mxCell>
        <mxCell id="dBZwFaHhxmJY7qI1aXTD-62" style="edgeStyle=none;curved=0;rounded=0;orthogonalLoop=1;jettySize=auto;html=1;fontSize=12;startSize=8;endSize=8;endArrow=none;endFill=0;dashed=1;" parent="1" source="dBZwFaHhxmJY7qI1aXTD-55" target="dBZwFaHhxmJY7qI1aXTD-1" edge="1">
          <mxGeometry relative="1" as="geometry" />
        </mxCell>
        <mxCell id="dBZwFaHhxmJY7qI1aXTD-55" value="evento_participante" style="swimlane;fontStyle=0;childLayout=stackLayout;horizontal=1;startSize=30;horizontalStack=0;resizeParent=1;resizeParentMax=0;resizeLast=0;collapsible=1;marginBottom=0;whiteSpace=wrap;html=1;" parent="1" vertex="1">
          <mxGeometry x="486" y="13" width="140" height="90" as="geometry" />
        </mxCell>
        <mxCell id="dBZwFaHhxmJY7qI1aXTD-56" value="usuario_id" style="text;strokeColor=none;fillColor=none;align=left;verticalAlign=middle;spacingLeft=4;spacingRight=4;overflow=hidden;points=[[0,0.5],[1,0.5]];portConstraint=eastwest;rotatable=0;whiteSpace=wrap;html=1;" parent="dBZwFaHhxmJY7qI1aXTD-55" vertex="1">
          <mxGeometry y="30" width="140" height="30" as="geometry" />
        </mxCell>
        <mxCell id="dBZwFaHhxmJY7qI1aXTD-57" value="evento_id" style="text;strokeColor=none;fillColor=none;align=left;verticalAlign=middle;spacingLeft=4;spacingRight=4;overflow=hidden;points=[[0,0.5],[1,0.5]];portConstraint=eastwest;rotatable=0;whiteSpace=wrap;html=1;" parent="dBZwFaHhxmJY7qI1aXTD-55" vertex="1">
          <mxGeometry y="60" width="140" height="30" as="geometry" />
        </mxCell>
        <mxCell id="dBZwFaHhxmJY7qI1aXTD-72" style="edgeStyle=none;curved=1;rounded=0;orthogonalLoop=1;jettySize=auto;html=1;fontSize=12;startSize=8;endSize=8;" parent="1" source="dBZwFaHhxmJY7qI1aXTD-63" target="dBZwFaHhxmJY7qI1aXTD-67" edge="1">
          <mxGeometry relative="1" as="geometry" />
        </mxCell>
        <mxCell id="dBZwFaHhxmJY7qI1aXTD-63" value="grupo" style="swimlane;fontStyle=0;childLayout=stackLayout;horizontal=1;startSize=30;horizontalStack=0;resizeParent=1;resizeParentMax=0;resizeLast=0;collapsible=1;marginBottom=0;whiteSpace=wrap;html=1;" parent="1" vertex="1">
          <mxGeometry x="-796" y="-436" width="140" height="90" as="geometry" />
        </mxCell>
        <mxCell id="dBZwFaHhxmJY7qI1aXTD-64" value="nome" style="text;strokeColor=none;fillColor=none;align=left;verticalAlign=middle;spacingLeft=4;spacingRight=4;overflow=hidden;points=[[0,0.5],[1,0.5]];portConstraint=eastwest;rotatable=0;whiteSpace=wrap;html=1;" parent="dBZwFaHhxmJY7qI1aXTD-63" vertex="1">
          <mxGeometry y="30" width="140" height="30" as="geometry" />
        </mxCell>
        <mxCell id="dBZwFaHhxmJY7qI1aXTD-77" value="endereco_id" style="text;strokeColor=none;fillColor=none;align=left;verticalAlign=middle;spacingLeft=4;spacingRight=4;overflow=hidden;points=[[0,0.5],[1,0.5]];portConstraint=eastwest;rotatable=0;whiteSpace=wrap;html=1;" parent="dBZwFaHhxmJY7qI1aXTD-63" vertex="1">
          <mxGeometry y="60" width="140" height="30" as="geometry" />
        </mxCell>
        <mxCell id="dBZwFaHhxmJY7qI1aXTD-67" value="grupo_musico" style="swimlane;fontStyle=0;childLayout=stackLayout;horizontal=1;startSize=30;horizontalStack=0;resizeParent=1;resizeParentMax=0;resizeLast=0;collapsible=1;marginBottom=0;whiteSpace=wrap;html=1;" parent="1" vertex="1">
          <mxGeometry x="-460" y="-436" width="140" height="90" as="geometry" />
        </mxCell>
        <mxCell id="dBZwFaHhxmJY7qI1aXTD-68" value="grupo_id" style="text;strokeColor=none;fillColor=none;align=left;verticalAlign=middle;spacingLeft=4;spacingRight=4;overflow=hidden;points=[[0,0.5],[1,0.5]];portConstraint=eastwest;rotatable=0;whiteSpace=wrap;html=1;" parent="dBZwFaHhxmJY7qI1aXTD-67" vertex="1">
          <mxGeometry y="30" width="140" height="30" as="geometry" />
        </mxCell>
        <mxCell id="dBZwFaHhxmJY7qI1aXTD-69" value="musico_id&lt;span style=&quot;white-space: pre;&quot;&gt;&#x9;&lt;/span&gt;" style="text;strokeColor=none;fillColor=none;align=left;verticalAlign=middle;spacingLeft=4;spacingRight=4;overflow=hidden;points=[[0,0.5],[1,0.5]];portConstraint=eastwest;rotatable=0;whiteSpace=wrap;html=1;" parent="dBZwFaHhxmJY7qI1aXTD-67" vertex="1">
          <mxGeometry y="60" width="140" height="30" as="geometry" />
        </mxCell>
        <mxCell id="dBZwFaHhxmJY7qI1aXTD-73" value="endereco" style="swimlane;fontStyle=0;childLayout=stackLayout;horizontal=1;startSize=30;horizontalStack=0;resizeParent=1;resizeParentMax=0;resizeLast=0;collapsible=1;marginBottom=0;whiteSpace=wrap;html=1;" parent="1" vertex="1">
          <mxGeometry x="486" y="-542" width="140" height="180" as="geometry" />
        </mxCell>
        <mxCell id="dBZwFaHhxmJY7qI1aXTD-74" value="nome" style="text;strokeColor=none;fillColor=none;align=left;verticalAlign=middle;spacingLeft=4;spacingRight=4;overflow=hidden;points=[[0,0.5],[1,0.5]];portConstraint=eastwest;rotatable=0;whiteSpace=wrap;html=1;" parent="dBZwFaHhxmJY7qI1aXTD-73" vertex="1">
          <mxGeometry y="30" width="140" height="30" as="geometry" />
        </mxCell>
        <mxCell id="dBZwFaHhxmJY7qI1aXTD-75" value="logradouro" style="text;strokeColor=none;fillColor=none;align=left;verticalAlign=middle;spacingLeft=4;spacingRight=4;overflow=hidden;points=[[0,0.5],[1,0.5]];portConstraint=eastwest;rotatable=0;whiteSpace=wrap;html=1;" parent="dBZwFaHhxmJY7qI1aXTD-73" vertex="1">
          <mxGeometry y="60" width="140" height="30" as="geometry" />
        </mxCell>
        <mxCell id="dBZwFaHhxmJY7qI1aXTD-78" value="cep" style="text;strokeColor=none;fillColor=none;align=left;verticalAlign=middle;spacingLeft=4;spacingRight=4;overflow=hidden;points=[[0,0.5],[1,0.5]];portConstraint=eastwest;rotatable=0;whiteSpace=wrap;html=1;" parent="dBZwFaHhxmJY7qI1aXTD-73" vertex="1">
          <mxGeometry y="90" width="140" height="30" as="geometry" />
        </mxCell>
        <mxCell id="dBZwFaHhxmJY7qI1aXTD-79" value="numero" style="text;strokeColor=none;fillColor=none;align=left;verticalAlign=middle;spacingLeft=4;spacingRight=4;overflow=hidden;points=[[0,0.5],[1,0.5]];portConstraint=eastwest;rotatable=0;whiteSpace=wrap;html=1;" parent="dBZwFaHhxmJY7qI1aXTD-73" vertex="1">
          <mxGeometry y="120" width="140" height="30" as="geometry" />
        </mxCell>
        <mxCell id="dBZwFaHhxmJY7qI1aXTD-76" value="coordenada" style="text;strokeColor=none;fillColor=none;align=left;verticalAlign=middle;spacingLeft=4;spacingRight=4;overflow=hidden;points=[[0,0.5],[1,0.5]];portConstraint=eastwest;rotatable=0;whiteSpace=wrap;html=1;" parent="dBZwFaHhxmJY7qI1aXTD-73" vertex="1">
          <mxGeometry y="150" width="140" height="30" as="geometry" />
        </mxCell>
        <mxCell id="YnN2ZHL4LHem92UOEk20-13" value="&lt;h1 style=&quot;margin-top: 0px;&quot;&gt;&lt;span style=&quot;background-color: initial;&quot;&gt;Backend: Node.js&lt;/span&gt;&lt;/h1&gt;&lt;h1 style=&quot;margin-top: 0px;&quot;&gt;&lt;span style=&quot;background-color: initial; font-size: 12px; font-weight: normal;&quot;&gt;Estrutura inicial do backend do sistema RAPMAP, todas as possÃ­veis funcionalidades do sistema modeladas.&lt;/span&gt;&lt;br&gt;&lt;/h1&gt;" style="text;html=1;whiteSpace=wrap;overflow=hidden;rounded=0;" parent="1" vertex="1">
          <mxGeometry x="-739" y="-825" width="379" height="120" as="geometry" />
        </mxCell>
        <mxCell id="YnN2ZHL4LHem92UOEk20-20" style="edgeStyle=none;curved=1;rounded=0;orthogonalLoop=1;jettySize=auto;html=1;fontSize=12;startSize=8;endSize=8;" parent="1" source="YnN2ZHL4LHem92UOEk20-14" target="dBZwFaHhxmJY7qI1aXTD-13" edge="1">
          <mxGeometry relative="1" as="geometry" />
        </mxCell>
        <mxCell id="YnN2ZHL4LHem92UOEk20-14" value="links" style="swimlane;fontStyle=0;childLayout=stackLayout;horizontal=1;startSize=30;horizontalStack=0;resizeParent=1;resizeParentMax=0;resizeLast=0;collapsible=1;marginBottom=0;whiteSpace=wrap;html=1;" parent="1" vertex="1">
          <mxGeometry x="-788" y="-254" width="140" height="150" as="geometry" />
        </mxCell>
        <mxCell id="YnN2ZHL4LHem92UOEk20-16" value="musico_id" style="text;strokeColor=none;fillColor=none;align=left;verticalAlign=middle;spacingLeft=4;spacingRight=4;overflow=hidden;points=[[0,0.5],[1,0.5]];portConstraint=eastwest;rotatable=0;whiteSpace=wrap;html=1;" parent="YnN2ZHL4LHem92UOEk20-14" vertex="1">
          <mxGeometry y="30" width="140" height="30" as="geometry" />
        </mxCell>
        <mxCell id="YnN2ZHL4LHem92UOEk20-17" value="spotfy" style="text;strokeColor=none;fillColor=none;align=left;verticalAlign=middle;spacingLeft=4;spacingRight=4;overflow=hidden;points=[[0,0.5],[1,0.5]];portConstraint=eastwest;rotatable=0;whiteSpace=wrap;html=1;" parent="YnN2ZHL4LHem92UOEk20-14" vertex="1">
          <mxGeometry y="60" width="140" height="30" as="geometry" />
        </mxCell>
        <mxCell id="YnN2ZHL4LHem92UOEk20-18" value="soudncloud" style="text;strokeColor=none;fillColor=none;align=left;verticalAlign=middle;spacingLeft=4;spacingRight=4;overflow=hidden;points=[[0,0.5],[1,0.5]];portConstraint=eastwest;rotatable=0;whiteSpace=wrap;html=1;" parent="YnN2ZHL4LHem92UOEk20-14" vertex="1">
          <mxGeometry y="90" width="140" height="30" as="geometry" />
        </mxCell>
        <mxCell id="YnN2ZHL4LHem92UOEk20-19" value="youtube" style="text;strokeColor=none;fillColor=none;align=left;verticalAlign=middle;spacingLeft=4;spacingRight=4;overflow=hidden;points=[[0,0.5],[1,0.5]];portConstraint=eastwest;rotatable=0;whiteSpace=wrap;html=1;" parent="YnN2ZHL4LHem92UOEk20-14" vertex="1">
          <mxGeometry y="120" width="140" height="30" as="geometry" />
        </mxCell>
        <mxCell id="YnN2ZHL4LHem92UOEk20-26" style="edgeStyle=none;curved=1;rounded=0;orthogonalLoop=1;jettySize=auto;html=1;fontSize=12;startSize=8;endSize=8;" parent="1" source="YnN2ZHL4LHem92UOEk20-21" target="dBZwFaHhxmJY7qI1aXTD-42" edge="1">
          <mxGeometry relative="1" as="geometry" />
        </mxCell>
        <mxCell id="YnN2ZHL4LHem92UOEk20-21" value="chaveamento_batalha" style="swimlane;fontStyle=0;childLayout=stackLayout;horizontal=1;startSize=30;horizontalStack=0;resizeParent=1;resizeParentMax=0;resizeLast=0;collapsible=1;marginBottom=0;whiteSpace=wrap;html=1;" parent="1" vertex="1">
          <mxGeometry x="873" y="-254" width="204" height="150" as="geometry" />
        </mxCell>
        <mxCell id="YnN2ZHL4LHem92UOEk20-22" value="evento_id" style="text;strokeColor=none;fillColor=none;align=left;verticalAlign=middle;spacingLeft=4;spacingRight=4;overflow=hidden;points=[[0,0.5],[1,0.5]];portConstraint=eastwest;rotatable=0;whiteSpace=wrap;html=1;" parent="YnN2ZHL4LHem92UOEk20-21" vertex="1">
          <mxGeometry y="30" width="204" height="30" as="geometry" />
        </mxCell>
        <mxCell id="YnN2ZHL4LHem92UOEk20-25" value="tipo_chaveamento_id" style="text;strokeColor=none;fillColor=none;align=left;verticalAlign=middle;spacingLeft=4;spacingRight=4;overflow=hidden;points=[[0,0.5],[1,0.5]];portConstraint=eastwest;rotatable=0;whiteSpace=wrap;html=1;" parent="YnN2ZHL4LHem92UOEk20-21" vertex="1">
          <mxGeometry y="60" width="204" height="30" as="geometry" />
        </mxCell>
        <mxCell id="YnN2ZHL4LHem92UOEk20-23" value="competidor_musico_id" style="text;strokeColor=none;fillColor=none;align=left;verticalAlign=middle;spacingLeft=4;spacingRight=4;overflow=hidden;points=[[0,0.5],[1,0.5]];portConstraint=eastwest;rotatable=0;whiteSpace=wrap;html=1;" parent="YnN2ZHL4LHem92UOEk20-21" vertex="1">
          <mxGeometry y="90" width="204" height="30" as="geometry" />
        </mxCell>
        <mxCell id="YnN2ZHL4LHem92UOEk20-24" value="adversario_musico_id" style="text;strokeColor=none;fillColor=none;align=left;verticalAlign=middle;spacingLeft=4;spacingRight=4;overflow=hidden;points=[[0,0.5],[1,0.5]];portConstraint=eastwest;rotatable=0;whiteSpace=wrap;html=1;" parent="YnN2ZHL4LHem92UOEk20-21" vertex="1">
          <mxGeometry y="120" width="204" height="30" as="geometry" />
        </mxCell>
        <mxCell id="YnN2ZHL4LHem92UOEk20-32" style="edgeStyle=none;curved=1;rounded=0;orthogonalLoop=1;jettySize=auto;html=1;fontSize=12;startSize=8;endSize=8;startArrow=classic;startFill=1;endArrow=none;endFill=0;" parent="1" source="YnN2ZHL4LHem92UOEk20-27" target="YnN2ZHL4LHem92UOEk20-21" edge="1">
          <mxGeometry relative="1" as="geometry" />
        </mxCell>
        <mxCell id="YnN2ZHL4LHem92UOEk20-27" value="tipos_chaveamento" style="swimlane;fontStyle=0;childLayout=stackLayout;horizontal=1;startSize=30;horizontalStack=0;resizeParent=1;resizeParentMax=0;resizeLast=0;collapsible=1;marginBottom=0;whiteSpace=wrap;html=1;" parent="1" vertex="1">
          <mxGeometry x="1167" y="-224" width="140" height="90" as="geometry" />
        </mxCell>
        <mxCell id="YnN2ZHL4LHem92UOEk20-29" value="descricao" style="text;strokeColor=none;fillColor=none;align=left;verticalAlign=middle;spacingLeft=4;spacingRight=4;overflow=hidden;points=[[0,0.5],[1,0.5]];portConstraint=eastwest;rotatable=0;whiteSpace=wrap;html=1;" parent="YnN2ZHL4LHem92UOEk20-27" vertex="1">
          <mxGeometry y="30" width="140" height="30" as="geometry" />
        </mxCell>
        <mxCell id="YnN2ZHL4LHem92UOEk20-31" value="limite_batalhas" style="text;strokeColor=none;fillColor=none;align=left;verticalAlign=middle;spacingLeft=4;spacingRight=4;overflow=hidden;points=[[0,0.5],[1,0.5]];portConstraint=eastwest;rotatable=0;whiteSpace=wrap;html=1;" parent="YnN2ZHL4LHem92UOEk20-27" vertex="1">
          <mxGeometry y="60" width="140" height="30" as="geometry" />
        </mxCell>
        <mxCell id="8JPTh2i2_k5Jdm1DhHGK-6" style="edgeStyle=none;curved=1;rounded=0;orthogonalLoop=1;jettySize=auto;html=1;fontSize=12;startSize=8;endSize=8;" parent="1" source="8JPTh2i2_k5Jdm1DhHGK-1" target="dBZwFaHhxmJY7qI1aXTD-42" edge="1">
          <mxGeometry relative="1" as="geometry" />
        </mxCell>
        <mxCell id="8JPTh2i2_k5Jdm1DhHGK-1" value="podio_evento" style="swimlane;fontStyle=0;childLayout=stackLayout;horizontal=1;startSize=30;horizontalStack=0;resizeParent=1;resizeParentMax=0;resizeLast=0;collapsible=1;marginBottom=0;whiteSpace=wrap;html=1;" parent="1" vertex="1">
          <mxGeometry x="879" y="-14" width="281" height="150" as="geometry" />
        </mxCell>
        <mxCell id="8JPTh2i2_k5Jdm1DhHGK-2" value="evento_id" style="text;strokeColor=none;fillColor=none;align=left;verticalAlign=middle;spacingLeft=4;spacingRight=4;overflow=hidden;points=[[0,0.5],[1,0.5]];portConstraint=eastwest;rotatable=0;whiteSpace=wrap;html=1;" parent="8JPTh2i2_k5Jdm1DhHGK-1" vertex="1">
          <mxGeometry y="30" width="281" height="30" as="geometry" />
        </mxCell>
        <mxCell id="8JPTh2i2_k5Jdm1DhHGK-3" value="primeiro_colocado_musico_id" style="text;strokeColor=none;fillColor=none;align=left;verticalAlign=middle;spacingLeft=4;spacingRight=4;overflow=hidden;points=[[0,0.5],[1,0.5]];portConstraint=eastwest;rotatable=0;whiteSpace=wrap;html=1;" parent="8JPTh2i2_k5Jdm1DhHGK-1" vertex="1">
          <mxGeometry y="60" width="281" height="30" as="geometry" />
        </mxCell>
        <mxCell id="8JPTh2i2_k5Jdm1DhHGK-4" value="&lt;span style=&quot;color: rgb(240, 240, 240); font-family: Helvetica; font-size: 12px; font-style: normal; font-variant-ligatures: normal; font-variant-caps: normal; font-weight: 400; letter-spacing: normal; orphans: 2; text-align: left; text-indent: 0px; text-transform: none; widows: 2; word-spacing: 0px; -webkit-text-stroke-width: 0px; white-space: normal; background-color: rgb(24, 20, 29); text-decoration-thickness: initial; text-decoration-style: initial; text-decoration-color: initial; display: inline !important; float: none;&quot;&gt;segundo_colocado_musico_id&lt;/span&gt;" style="text;strokeColor=none;fillColor=none;align=left;verticalAlign=middle;spacingLeft=4;spacingRight=4;overflow=hidden;points=[[0,0.5],[1,0.5]];portConstraint=eastwest;rotatable=0;whiteSpace=wrap;html=1;" parent="8JPTh2i2_k5Jdm1DhHGK-1" vertex="1">
          <mxGeometry y="90" width="281" height="30" as="geometry" />
        </mxCell>
        <mxCell id="8JPTh2i2_k5Jdm1DhHGK-5" value="&lt;span style=&quot;color: rgb(240, 240, 240); font-family: Helvetica; font-size: 12px; font-style: normal; font-variant-ligatures: normal; font-variant-caps: normal; font-weight: 400; letter-spacing: normal; orphans: 2; text-align: left; text-indent: 0px; text-transform: none; widows: 2; word-spacing: 0px; -webkit-text-stroke-width: 0px; white-space: normal; background-color: rgb(24, 20, 29); text-decoration-thickness: initial; text-decoration-style: initial; text-decoration-color: initial; display: inline !important; float: none;&quot;&gt;terceiro_colocado_musico_id&lt;/span&gt;" style="text;strokeColor=none;fillColor=none;align=left;verticalAlign=middle;spacingLeft=4;spacingRight=4;overflow=hidden;points=[[0,0.5],[1,0.5]];portConstraint=eastwest;rotatable=0;whiteSpace=wrap;html=1;" parent="8JPTh2i2_k5Jdm1DhHGK-1" vertex="1">
          <mxGeometry y="120" width="281" height="30" as="geometry" />
        </mxCell>
      </root>
    </mxGraphModel>
  </diagram>
</mxfile>
